HIERARCHY
ROOT hip
{
  OFFSET 0 0 0
  CHANNELS 6 Xposition Yposition Zposition Zrotation Yrotation Xrotation
  JOINT abdomen
  {
    OFFSET 0 20.6881 -0.73152
    CHANNELS 3 Zrotation Xrotation Yrotation
    JOINT chest
    {
      OFFSET 0 11.7043 -0.48768
      CHANNELS 3 Zrotation Xrotation Yrotation
      JOINT neck
      {
        OFFSET 0 22.1894 -2.19456
        CHANNELS 3 Zrotation Xrotation Yrotation
        JOINT head
        {
          OFFSET -0.24384 7.07133 1.2192
          CHANNELS 3 Zrotation Xrotation Yrotation
          JOINT leftEye
          {
            OFFSET 4.14528 8.04674 8.04672
            CHANNELS 3 Zrotation Xrotation Yrotation
            End Site
            {
              OFFSET 1 0 0
            }
          }
          JOINT rightEye
          {
            OFFSET -3.6576 8.04674 8.04672
            CHANNELS 3 Zrotation Xrotation Yrotation
            End Site
            {
              OFFSET 1 0 0
            }
          }
        }
      }
      JOINT rCollar
      {
        OFFSET -2.68224 19.2634 -4.8768
        CHANNELS 3 Zrotation Xrotation Yrotation
        JOINT rShldr
        {
          OFFSET -8.77824 -1.95073 1.46304
          CHANNELS 3 Zrotation Xrotation Yrotation
          JOINT rForeArm
          {
            OFFSET -28.1742 -1.7115 0.48768
            CHANNELS 3 Zrotation Xrotation Yrotation
            JOINT rHand
            {
              OFFSET -22.5879 0.773209 7.07136
              CHANNELS 3 Zrotation Xrotation Yrotation
              JOINT rThumb1
              {
                OFFSET -1.2192 -0.487915 3.41376
                CHANNELS 3 Zrotation Xrotation Yrotation
                JOINT rThumb2
                {
                  OFFSET -3.37035 -0.52449 3.41376
                  CHANNELS 3 Zrotation Xrotation Yrotation
                  End Site
                  {
                    OFFSET -1.78271 -1.18214 1.43049
                  }
                }
              }
              JOINT rIndex1
              {
                OFFSET -7.75947 0.938293 5.60832
                CHANNELS 3 Zrotation Xrotation Yrotation
                JOINT rIndex2
                {
                  OFFSET -2.54057 -0.884171 1.56538
                  CHANNELS 3 Zrotation Xrotation Yrotation
                  End Site
                  {
                    OFFSET -1.62519 -0.234802 1.16502
                  }
                }
              }
              JOINT rMid1
              {
                OFFSET -8.24714 1.18213 3.41376
                CHANNELS 3 Zrotation Xrotation Yrotation
                JOINT rMid2
                {
                  OFFSET -3.10165 -0.590103 1.0647
                  CHANNELS 3 Zrotation Xrotation Yrotation
                  End Site
                  {
                    OFFSET -2.48547 -0.328903 0.83742
                  }
                }
              }
              JOINT rRing1
              {
                OFFSET -8.82822 0.546677 1.51678
                CHANNELS 3 Zrotation Xrotation Yrotation
                JOINT rRing2
                {
                  OFFSET -2.60934 -0.819778 -0.0198488
                  CHANNELS 3 Zrotation Xrotation Yrotation
                  End Site
                  {
                    OFFSET -2.33842 -0.294052 0.168128
                  }
                }
              }
              JOINT rPinky1
              {
                OFFSET -8.27202 -0.0477905 -0.4584
                CHANNELS 3 Zrotation Xrotation Yrotation
                JOINT rPinky2
                {
                  OFFSET -1.82734 -0.647385 -0.700984
                  CHANNELS 3 Zrotation Xrotation Yrotation
                  End Site
                  {
                    OFFSET -1.69225 -0.51767 -0.607171
                  }
                }
              }
            }
          }
        }
      }
      JOINT lCollar
      {
        OFFSET 2.68224 19.2634 -4.8768
        CHANNELS 3 Zrotation Xrotation Yrotation
        JOINT lShldr
        {
          OFFSET 8.77824 -1.95073 1.46304
          CHANNELS 3 Zrotation Xrotation Yrotation
          JOINT lForeArm
          {
            OFFSET 28.1742 -1.7115 0.48768
            CHANNELS 3 Zrotation Xrotation Yrotation
            JOINT lHand
            {
              OFFSET 22.5879 0.773209 7.07136
              CHANNELS 3 Zrotation Xrotation Yrotation
              JOINT lThumb1
              {
                OFFSET 1.2192 -0.487915 3.41376
                CHANNELS 3 Zrotation Xrotation Yrotation
                JOINT lThumb2
                {
                  OFFSET 3.37035 -0.52449 3.41376
                  CHANNELS 3 Zrotation Xrotation Yrotation
                  End Site
                  {
                    OFFSET 1.78271 -1.18214 1.43049
                  }
                }
              }
              JOINT lIndex1
              {
                OFFSET 7.75947 0.938293 5.60832
                CHANNELS 3 Zrotation Xrotation Yrotation
                JOINT lIndex2
                {
                  OFFSET 2.54057 -0.884171 1.56538
                  CHANNELS 3 Zrotation Xrotation Yrotation
                  End Site
                  {
                    OFFSET 1.62519 -0.234802 1.16502
                  }
                }
              }
              JOINT lMid1
              {
                OFFSET 8.24714 1.18213 3.41376
                CHANNELS 3 Zrotation Xrotation Yrotation
                JOINT lMid2
                {
                  OFFSET 3.10165 -0.590103 1.0647
                  CHANNELS 3 Zrotation Xrotation Yrotation
                  End Site
                  {
                    OFFSET 2.48547 -0.328903 0.83742
                  }
                }
              }
              JOINT lRing1
              {
                OFFSET 8.82822 0.546677 1.51678
                CHANNELS 3 Zrotation Xrotation Yrotation
                JOINT lRing2
                {
                  OFFSET 2.60934 -0.819778 -0.0198488
                  CHANNELS 3 Zrotation Xrotation Yrotation
                  End Site
                  {
                    OFFSET 2.33842 -0.294052 0.168128
                  }
                }
              }
              JOINT lPinky1
              {
                OFFSET 8.27202 -0.0477905 -0.4584
                CHANNELS 3 Zrotation Xrotation Yrotation
                JOINT lPinky2
                {
                  OFFSET 1.82734 -0.647385 -0.700984
                  CHANNELS 3 Zrotation Xrotation Yrotation
                  End Site
                  {
                    OFFSET 1.69225 -0.51767 -0.607171
                  }
                }
              }
            }
          }
        }
      }
    }
  }
  JOINT rButtock
  {
    OFFSET -8.77824 4.35084 1.2192
    CHANNELS 3 Zrotation Xrotation Yrotation
    JOINT rThigh
    {
      OFFSET 0 -1.70687 -2.19456
      CHANNELS 3 Zrotation Xrotation Yrotation
      JOINT rShin
      {
        OFFSET 0 -36.8199 0.73152
        CHANNELS 3 Zrotation Xrotation Yrotation
        JOINT rFoot
        {
          OFFSET 0.73152 -45.1104 -5.12064
          CHANNELS 3 Zrotation Xrotation Yrotation
          End Site
          {
            OFFSET -1.1221 -3.69964 12.103
          }
        }
      }
    }
  }
  JOINT lButtock
  {
    OFFSET 8.77824 4.35084 1.2192
    CHANNELS 3 Zrotation Xrotation Yrotation
    JOINT lThigh
    {
      OFFSET 0 -1.70687 -2.19456
      CHANNELS 3 Zrotation Xrotation Yrotation
      JOINT lShin
      {
        OFFSET 0 -36.8199 0.73152
        CHANNELS 3 Zrotation Xrotation Yrotation
        JOINT lFoot
        {
          OFFSET -0.73152 -45.1104 -5.12064
          CHANNELS 3 Zrotation Xrotation Yrotation
          End Site
          {
            OFFSET 1.1221 -3.69964 12.103
          }
        }
      }
    }
  }
}
MOTION
Frames:	4
Frame Time:	0.00833333
3.31051 83.9374 27.0347 -783.415 -80.5755 786.657 11.7416 -2.20543 -5.57625 5.13041 -0.227031 -1.70425 -5.93118 6.04614 -4.92697 12.8258 0.931413 -9.84997 -0.0 0.0 0.0 -0.0 0.0 0.0 1.20949e-13 -4.2699e-13 -3.88127e-14 73.5114 19.6244 3.36167 -28.1514 -31.6069 69.8212 -0.555321 -20.6864 -3.042 1.80248e-10 -2.03701e-09 3.12631e-09 2.65013e-10 -3.52294e-09 5.39902e-09 1.80254e-10 -2.03701e-09 3.1263e-09 7.73091 5.47488 0.417314 1.80246e-10 -2.03702e-09 3.1263e-09 2.90554 0.965183 0.102902 1.80261e-10 -2.03702e-09 3.12631e-09 10.2786 0.731801 0.0259123 1.80248e-10 -2.03702e-09 3.12631e-09 2.22167 -0.733487 -0.20892 1.20781e-13 -4.2699e-13 -3.90612e-14 -74.3611 37.6487 -6.26821 27.2345 -27.1547 -62.7197 0.0761383 -7.84788 1.10997 7.29185e-10 -1.0763e-11 -3.04054e-09 1.28007e-09 -1.65421e-11 -5.24888e-09 7.2918e-10 -1.07694e-11 -3.04053e-09 -7.73091 5.47488 -0.417314 7.29181e-10 -1.07712e-11 -3.04054e-09 -2.90554 0.965183 -0.102902 7.29181e-10 -1.07724e-11 -3.04054e-09 -10.2786 0.731801 -0.0259123 7.2919e-10 -1.07717e-11 -3.04055e-09 -2.22167 -0.733487 0.20892 -2.03217e-16 0.0 -3.88251e-19 13.2142 -20.4892 3.54668 -0.0902337 22.0473 0.0798253 -1.54964 -1.23274 -12.3952 2.03217e-16 0.0 3.88251e-19 15.3321 -19.301 0.191474 1.12669 60.9078 -1.57716 0.904308 10.5628 -5.4765
2.3704 84.0699 26.8899 -783.974 -80.5821 787.132 11.7461 -2.29908 -5.38773 5.09283 -0.128857 -1.65315 -5.8849 6.07382 -4.92275 12.9641 0.85004 -9.84373 -0.0 0.0 0.0 -0.0 0.0 0.0 2.08924e-13 -2.77628e-13 -8.35878e-14 73.3847 19.8369 3.6743 -28.2515 -32.3785 71.0359 -0.565932 -20.8724 -3.07194 3.14284e-10 -1.58777e-09 3.24366e-09 4.9653e-10 -2.74647e-09 5.60239e-09 3.14289e-10 -1.58777e-09 3.24366e-09 7.73091 5.47488 0.417314 3.14282e-10 -1.58777e-09 3.24366e-09 2.90554 0.965183 0.102902 3.14297e-10 -1.58777e-09 3.24366e-09 10.2786 0.731801 0.0259123 3.14283e-10 -1.58778e-09 3.24367e-09 2.22167 -0.733487 -0.20892 2.08763e-13 -2.77621e-13 -8.38192e-14 -74.3686 37.8097 -5.84218 27.4102 -27.8148 -63.7404 0.0639872 -7.192 1.01621 6.12381e-10 -1.85672e-10 -3.12291e-09 1.08043e-09 -3.18531e-10 -5.39373e-09 6.12376e-10 -1.85677e-10 -3.1229e-09 -7.73091 5.47488 -0.417314 6.12377e-10 -1.85679e-10 -3.1229e-09 -2.90554 0.965183 -0.102902 6.12376e-10 -1.8568e-10 -3.1229e-09 -10.2786 0.731801 -0.0259123 6.12386e-10 -1.8568e-10 -3.12291e-09 -2.22167 -0.733487 0.20892 -2.03217e-16 0.0 -3.88251e-19 13.4421 -19.4112 3.55865 -0.0811705 21.5221 0.0776826 -1.61033 -1.63929 -12.3393 2.03217e-16 0.0 3.88251e-19 15.6552 -20.373 0.677403 1.17785 61.6045 -1.61879 0.767207 9.75981 -4.8086
1.43606 84.1995 26.7508 -784.608 -80.5952 787.701 11.7281 -2.42026 -5.19457 5.04351 -0.031505 -1.6013 -5.83138 6.10429 -4.91419 13.0641 0.7541 -9.82644 -0.0 0.0 0.0 -0.0 0.0 0.0 3.27817e-13 -2.07563e-13 -1.27368e-13 73.2904 20.0089 3.95201 -28.3299 -33.191 72.3535 -0.576712 -21.0595 -3.10213 4.42006e-10 -3.92535e-10 2.65617e-09 7.28488e-10 -6.80009e-10 4.58813e-09 4.42012e-10 -3.92531e-10 2.65616e-09 7.73091 5.47488 0.417314 4.42005e-10 -3.92537e-10 2.65617e-09 2.90554 0.965183 0.102902 4.42021e-10 -3.92536e-10 2.65617e-09 10.2786 0.731801 0.0259123 4.42006e-10 -3.92539e-10 2.65618e-09 2.22167 -0.733487 -0.20892 3.27669e-13 -2.07547e-13 -1.27586e-13 -74.4986 37.8855 -5.28403 27.5819 -28.5334 -64.903 0.0529454 -6.56562 0.926843 2.76876e-10 -3.93625e-10 -2.56482e-09 4.98408e-10 -6.77748e-10 -4.43413e-09 2.76872e-10 -3.93628e-10 -2.56481e-09 -7.73091 5.47488 -0.417314 2.76872e-10 -3.9363e-10 -2.56481e-09 -2.90554 0.965183 -0.102902 2.76871e-10 -3.9363e-10 -2.56481e-09 -10.2786 0.731801 -0.0259123 2.76881e-10 -3.9363e-10 -2.56482e-09 -2.22167 -0.733487 0.20892 -2.03217e-16 0.0 -3.88251e-19 13.6235 -18.3412 3.53457 -0.0718409 20.9662 0.0769408 -1.65679 -2.01764 -12.2237 2.03217e-16 0.0 3.88251e-19 15.9417 -21.4387 1.1644 1.22058 62.1515 -1.65271 0.654495 8.96204 -4.15435
0.506691 84.3261 26.6165 -785.364 -80.6079 788.4 11.7096 -2.548 -4.98373 4.96924 0.0551737 -1.54427 -5.79254 6.1284 -4.90419 13.1826 0.651284 -9.80139 -0.0 0.0 0.0 -0.0 0.0 0.0 4.2139e-13 -1.82038e-13 -1.56291e-13 73.2194 20.1378 4.20598 -28.3855 -34.0225 73.7289 -0.586863 -21.2335 -3.13027 4.93285e-10 9.23765e-10 1.69397e-09 8.33668e-10 1.5963e-09 2.92604e-09 4.93292e-10 9.23768e-10 1.69396e-09 7.73091 5.47488 0.417314 4.93285e-10 9.23763e-10 1.69397e-09 2.90554 0.965183 0.102902 4.933e-10 9.23765e-10 1.69397e-09 10.2786 0.731801 0.0259123 4.93286e-10 9.23762e-10 1.69398e-09 2.22167 -0.733487 -0.20892 4.21255e-13 -1.82014e-13 -1.56498e-13 -74.6993 37.9011 -4.65164 27.7497 -29.3061 -66.1601 0.0446011 -6.04121 0.852198 -1.34761e-10 -5.65806e-10 -1.63699e-09 -2.17818e-10 -9.75395e-10 -2.83568e-09 -1.34765e-10 -5.65808e-10 -1.63698e-09 -7.73091 5.47488 -0.417314 -1.34764e-10 -5.65808e-10 -1.63698e-09 -2.90554 0.965183 -0.102902 -1.34765e-10 -5.65809e-10 -1.63698e-09 -10.2786 0.731801 -0.0259123 -1.34756e-10 -5.65809e-10 -1.63699e-09 -2.22167 -0.733487 0.20892 -2.03217e-16 0.0 -3.88251e-19 13.7861 -17.29 3.49997 -0.0629612 20.4011 0.0781463 -1.6948 -2.37837 -12.0768 2.03217e-16 0.0 3.88251e-19 16.21 -22.4946 1.64914 1.25397 62.5587 -1.67841 0.563603 8.14755 -3.52825
